<svg version="1.1" xmlns="http://www.w3.org/2000/svg" xmlns:xlink="http://www.w3.org/1999/xlink" width="48" height="48" viewBox="0,0,256,256"><g fill="#a3abb2" fill-rule="nonzero" stroke="none" stroke-width="1" stroke-linecap="butt" stroke-linejoin="miter" stroke-miterlimit="10" stroke-dasharray="" stroke-dashoffset="0" font-family="none" font-weight="none" font-size="none" text-anchor="none" style="mix-blend-mode: normal"><g transform="translate(0,256) scale(0.26667,0.26667)"><path d="M140,-80c-16,0 -30,-6 -42,-18c-12,-12 -18,-26 -18,-42v-480c0,-16 6,-30 18,-42c12,-12 26,-18 42,-18h250v-140c0,-16 6,-30 18,-42c12,-12 26.137,-18 42.411,-18h59.178c16.274,0 30.411,6 42.411,18c12,12 18,26 18,42v140h250c16,0 30,6 42,18c12,12 18,26 18,42v480c0,16 -6,30 -18,42c-12,12 -26,18 -42,18zM140,-140h680v-480h-250v30c0,18.66667 -6,33.33333 -18,44c-12,10.66667 -26.137,16 -42.411,16h-59.178c-16.274,0 -30.411,-5.33333 -42.411,-16c-12,-10.66667 -18,-25.33333 -18,-44v-30h-250zM232,-247h239v-14c0,-12 -3,-22.66667 -9,-32c-6,-9.33333 -13.66667,-15.66667 -23,-19c-21.33333,-7.33333 -38,-12.16667 -50,-14.5c-12,-2.33333 -23.66667,-3.5 -35,-3.5c-12.66667,0 -26.16667,1.5 -40.5,4.5c-14.33333,3 -30.5,7.5 -48.5,13.5c-10,3.33333 -18,9.66667 -24,19c-6,9.33333 -9,20 -9,32zM568,-314h170v-50h-170zM354,-364c15,0 27.75,-5.25 38.25,-15.75c10.5,-10.5 15.75,-23.25 15.75,-38.25c0,-15 -5.25,-27.75 -15.75,-38.25c-10.5,-10.5 -23.25,-15.75 -38.25,-15.75c-15,0 -27.75,5.25 -38.25,15.75c-10.5,10.5 -15.75,23.25 -15.75,38.25c0,15 5.25,27.75 15.75,38.25c10.5,10.5 23.25,15.75 38.25,15.75zM568,-427h170v-50h-170zM450,-590h60v-230h-60zM480,-380z"></path></g></g></svg>