<svg version="1.1" xmlns="http://www.w3.org/2000/svg" xmlns:xlink="http://www.w3.org/1999/xlink" width="48" height="48" viewBox="0,0,256,256"><g fill="#a3abb2" fill-rule="nonzero" stroke="none" stroke-width="1" stroke-linecap="butt" stroke-linejoin="miter" stroke-miterlimit="10" stroke-dasharray="" stroke-dashoffset="0" font-family="none" font-weight="none" font-size="none" text-anchor="none" style="mix-blend-mode: normal"><g transform="translate(0,256) scale(0.26667,0.26667)"><path d="M388,-80l-20,-126c-12.66667,-4.66667 -26,-11 -40,-19c-14,-8 -26.33333,-16.33333 -37,-25l-118,54l-93,-164l108,-79c-1.33333,-6 -2.16667,-12.83333 -2.5,-20.5c-0.33333,-7.66667 -0.5,-14.5 -0.5,-20.5c0,-6 0.16667,-12.83333 0.5,-20.5c0.33333,-7.66667 1.16667,-14.5 2.5,-20.5l-108,-79l93,-164l118,54c10.66667,-8.66667 23,-17 37,-25c14,-8 27.33333,-14 40,-18l20,-127h184l20,126c12.66667,4.66667 26.16667,10.83333 40.5,18.5c14.33333,7.66667 26.5,16.16667 36.5,25.5l118,-54l93,164l-108,77c1.33333,6.66667 2.16667,13.83333 2.5,21.5c0.33333,7.66667 0.5,14.83333 0.5,21.5c0,6.66667 -0.16667,13.66667 -0.5,21c-0.33333,7.33333 -1.16667,14.33333 -2.5,21l108,78l-93,164l-118,-54c-10.66667,8.66667 -22.83333,17.16667 -36.5,25.5c-13.66667,8.33333 -27.16667,14.5 -40.5,18.5l-20,126zM480,-350c36,0 66.66667,-12.66667 92,-38c25.33333,-25.33333 38,-56 38,-92c0,-36 -12.66667,-66.66667 -38,-92c-25.33333,-25.33333 -56,-38 -92,-38c-36,0 -66.66667,12.66667 -92,38c-25.33333,25.33333 -38,56 -38,92c0,36 12.66667,66.66667 38,92c25.33333,25.33333 56,38 92,38zM480,-410c-19.33333,0 -35.83333,-6.83333 -49.5,-20.5c-13.66667,-13.66667 -20.5,-30.16667 -20.5,-49.5c0,-19.33333 6.83333,-35.83333 20.5,-49.5c13.66667,-13.66667 30.16667,-20.5 49.5,-20.5c19.33333,0 35.83333,6.83333 49.5,20.5c13.66667,13.66667 20.5,30.16667 20.5,49.5c0,19.33333 -6.83333,35.83333 -20.5,49.5c-13.66667,13.66667 -30.16667,20.5 -49.5,20.5zM480,-480zM436,-140h88l14,-112c22,-5.33333 42.83333,-13.66667 62.5,-25c19.66667,-11.33333 37.5,-25 53.5,-41l106,46l40,-72l-94,-69c2.66667,-11.33333 4.83333,-22.5 6.5,-33.5c1.66667,-11 2.5,-22.16667 2.5,-33.5c0,-11.33333 -0.66667,-22.5 -2,-33.5c-1.33333,-11 -3.66667,-22.16667 -7,-33.5l94,-69l-40,-72l-106,46c-15.33333,-17.33333 -32.66667,-31.83333 -52,-43.5c-19.33333,-11.66667 -40.66667,-19.16667 -64,-22.5l-14,-112h-88l-14,112c-22.66667,4.66667 -43.83333,12.66667 -63.5,24c-19.66667,11.33333 -37.16667,25.33333 -52.5,42l-106,-46l-40,72l94,69c-2.66667,11.33333 -4.83333,22.5 -6.5,33.5c-1.66667,11 -2.5,22.16667 -2.5,33.5c0,11.33333 0.83333,22.5 2.5,33.5c1.66667,11 3.83333,22.16667 6.5,33.5l-94,69l40,72l106,-46c16,16 33.83333,29.66667 53.5,41c19.66667,11.33333 40.5,19.66667 62.5,25z"></path></g></g></svg>