<svg version="1.1" xmlns="http://www.w3.org/2000/svg" xmlns:xlink="http://www.w3.org/1999/xlink" width="48" height="48" viewBox="0,0,256,256"><g fill="#a3abb2" fill-rule="nonzero" stroke="none" stroke-width="1" stroke-linecap="butt" stroke-linejoin="miter" stroke-miterlimit="10" stroke-dasharray="" stroke-dashoffset="0" font-family="none" font-weight="none" font-size="none" text-anchor="none" style="mix-blend-mode: normal"><g transform="translate(0,250.66667) scale(0.26667,0.26667)"><path d="M89,-249l-49,-36l188,-300l119.571,140l159.429,-258l109,162c-10.66667,1.33333 -21,3.5 -31,6.5c-10,3 -20,6.5 -30,10.5l-45,-69l-152.557,249l-121.443,-141zM877,-40l-134,-134c-14,10 -29.16667,17.66667 -45.5,23c-16.33333,5.33333 -33.16667,8 -50.5,8c-47.222,0 -87.361,-16.53933 -120.417,-49.618c-33.05533,-33.078 -49.583,-73.24467 -49.583,-120.5c0,-47.25467 16.53933,-87.382 49.618,-120.382c33.078,-33 73.24467,-49.5 120.5,-49.5c47.25467,0 87.382,16.52767 120.382,49.583c33,33.056 49.5,73.195 49.5,120.417c0,17.33333 -2.83333,34.16667 -8.5,50.5c-5.66667,16.33333 -13.16667,31.98267 -22.5,46.948l134,132.552zM646.859,-203c30.76067,0 56.80767,-10.61967 78.141,-31.859c21.33333,-21.23933 32,-47.23933 32,-78c0,-30.76067 -10.61967,-56.80767 -31.859,-78.141c-21.23933,-21.33333 -47.23933,-32 -78,-32c-30.76067,0 -56.80767,10.61967 -78.141,31.859c-21.33333,21.23933 -32,47.23933 -32,78c0,30.76067 10.61967,56.80767 31.859,78.141c21.23933,21.33333 47.23933,32 78,32zM721,-531c-10,-4 -20.33333,-6.66667 -31,-8c-10.66667,-1.33333 -21.66667,-2.66667 -33,-4l214,-337l49,36z"></path></g></g></svg>