<svg version="1.1" xmlns="http://www.w3.org/2000/svg" xmlns:xlink="http://www.w3.org/1999/xlink" width="800px" height="800px" viewBox="0,0,256,256"><g fill="#b49c73" fill-rule="nonzero" stroke="none" stroke-width="1" stroke-linecap="butt" stroke-linejoin="miter" stroke-miterlimit="10" stroke-dasharray="" stroke-dashoffset="0" font-family="none" font-weight="none" font-size="none" text-anchor="none" style="mix-blend-mode: normal"><g transform="translate(0.00001,0.00012) scale(10.66667,10.66667)"><path d="M12,3l0.4892,-0.87215c-0.3038,-0.17047 -0.6746,-0.17047 -0.9784,0zM13.3976,3.784l-0.4892,0.87215c0.1458,0.08177 0.3097,0.1257 0.4768,0.12777zM15,3.80385l0.8598,-0.51069c-0.178,-0.29957 -0.499,-0.48492 -0.8474,-0.48924zM15.8184,5.18162l-0.8598,0.51069c0.0854,0.1437 0.2054,0.26372 0.3491,0.34908zM17.1962,6l0.9999,-0.01239c-0.0043,-0.3484 -0.1897,-0.66944 -0.4893,-0.84738zM17.216,7.60238l-0.9999,0.01238c0.002,0.16713 0.046,0.33108 0.1277,0.47685zM18,9l0.8722,0.48924c0.1704,-0.30389 0.1704,-0.67459 0,-0.97848zM17.216,10.3976l-0.8722,-0.48921c-0.0817,0.14581 -0.1257,0.30971 -0.1277,0.47681zM17.1962,12l0.5106,0.8598c0.2996,-0.178 0.485,-0.499 0.4893,-0.8474zM15.8184,12.8184l-0.5107,-0.8598c-0.1437,0.0854 -0.2637,0.2054 -0.3491,0.3491zM15,14.1962l0.0124,0.9999c0.3484,-0.0043 0.6694,-0.1897 0.8474,-0.4893zM13.3976,14.216l-0.0124,-0.9999c-0.1671,0.002 -0.331,0.046 -0.4768,0.1277zM12,15l-0.4892,0.8722c0.3038,0.1704 0.6746,0.1704 0.9784,0zM10.6024,14.216l0.4892,-0.8722c-0.1458,-0.0817 -0.3097,-0.1257 -0.4768,-0.1277zM9,14.1962l-0.85977,0.5106c0.17794,0.2996 0.49898,0.485 0.84738,0.4893zM8.18162,12.8184l0.85977,-0.5107c-0.08536,-0.1437 -0.20537,-0.2637 -0.34908,-0.3491zM6.80385,12l-0.99993,0.0124c0.00432,0.3484 0.18967,0.6694 0.48924,0.8474zM6.784,10.3976l0.99992,-0.0124c-0.00207,-0.1671 -0.046,-0.331 -0.12777,-0.47681zM6,9l-0.87215,-0.48924c-0.17047,0.30389 -0.17047,0.67459 0,0.97848zM6.784,7.60238l0.87215,0.48923c0.08177,-0.14577 0.1257,-0.30972 0.12777,-0.47685zM6.80385,6l-0.51069,-0.85977c-0.29957,0.17794 -0.48492,0.49898 -0.48924,0.84739zM8.18162,5.18162l0.51069,0.85977c0.14371,-0.08536 0.26372,-0.20537 0.34908,-0.34908zM9,3.80385l-0.01238,-0.99993c-0.34841,0.00432 -0.66945,0.18967 -0.84739,0.48924zM10.6024,3.784l0.0124,0.99992c0.1671,-0.00207 0.331,-0.046 0.4768,-0.12777zM8.5,21h-1c0,0.3565 0.18976,0.686 0.49807,0.8649c0.30832,0.1789 0.68857,0.1802 0.99807,0.0033zM12,19l0.4961,-0.8682c-0.3074,-0.1757 -0.6848,-0.1757 -0.9922,0zM15.5,21l-0.4961,0.8682c0.3095,0.1769 0.6897,0.1756 0.998,-0.0033c0.3083,-0.1789 0.4981,-0.5084 0.4981,-0.8649zM11.5108,3.87215l1.3976,0.784l0.9785,-1.7443l-1.3977,-0.784zM13.3852,4.78392l1.6024,0.01985l0.0248,-1.99985l-1.6024,-0.01984zM14.1402,4.31454l0.8184,1.37777l1.7195,-1.02137l-0.8183,-1.37778zM15.3077,6.04139l1.3778,0.81838l1.0213,-1.71954l-1.3777,-0.81837zM16.1962,6.01239l0.0199,1.60237l1.9998,-0.02477l-0.0198,-1.60238zM16.3438,8.09161l0.784,1.39763l1.7444,-0.97848l-0.784,-1.39762zM17.1278,8.51076l-0.784,1.39763l1.7444,0.97851l0.784,-1.39766zM16.2161,10.3852l-0.0199,1.6024l1.9999,0.0248l0.0198,-1.6024zM14.9876,13.1962l-1.6024,0.0199l0.0248,1.9998l1.6024,-0.0198zM10.6148,13.2161l-1.60241,-0.0199l-0.02478,1.9999l1.60239,0.0198zM7.80377,11.9876l-0.01985,-1.6024l-1.99984,0.0248l0.01984,1.6024zM7.65615,9.90839l-0.784,-1.39763l-1.7443,0.97848l0.784,1.39766zM6.87215,9.48924l0.784,-1.39763l-1.7443,-0.97847l-0.784,1.39762zM7.78392,7.61476l0.01985,-1.60238l-1.99985,-0.02476l-0.01984,1.60237zM7.31454,6.85977l1.37777,-0.81838l-1.02137,-1.71953l-1.37778,0.81837zM9.04139,5.69231l0.81838,-1.37777l-1.71954,-1.02138l-0.81837,1.37778zM9.01238,4.80377l1.60242,-0.01985l-0.0248,-1.99984l-1.60238,0.01984zM11.0916,4.65615l1.3976,-0.784l-0.9784,-1.7443l-1.3977,0.784zM16.6855,11.1402l-1.3778,0.8184l1.0214,1.7195l1.3777,-0.8183zM8.69231,11.9586l-1.37777,-0.8184l-1.02138,1.7196l1.37778,0.8183zM12.9084,13.3438l-1.3976,0.784l0.9784,1.7444l1.3977,-0.784zM12.4892,14.1278l-1.3976,-0.784l-0.9785,1.7444l1.3977,0.784zM8.99614,21.8682l3.49996,-2l-0.9922,-1.7364l-3.50004,2zM11.5039,19.8682l3.5,2l0.9922,-1.7364l-3.5,-2zM16.5,21v-7.6456h-2v7.6456zM14.9586,12.3077l-0.3184,0.536l1.7196,1.0214l0.3183,-0.536zM14.6402,12.8437l-0.5,0.8418l1.7196,1.0213l0.5,-0.8417zM7.5,13.3544v7.6456h2v-7.6456zM9.85977,13.6855l-0.5,-0.8418l-1.71954,1.0214l0.5,0.8417zM9.35977,12.8437l-0.31838,-0.536l-1.71953,1.0214l0.31837,0.536zM13,9c0,0.55228 -0.4477,1 -1,1v2c1.6569,0 3,-1.3431 3,-3zM12,10c-0.5523,0 -1,-0.44772 -1,-1h-2c0,1.6569 1.3431,3 3,3zM11,9c0,-0.55228 0.4477,-1 1,-1v-2c-1.6569,0 -3,1.34315 -3,3zM12,8c0.5523,0 1,0.44772 1,1h2c0,-1.65685 -1.3431,-3 -3,-3z"></path></g></g></svg>