<svg version="1.1" xmlns="http://www.w3.org/2000/svg" xmlns:xlink="http://www.w3.org/1999/xlink" width="48" height="48" viewBox="0,0,256,256"><g fill="#a3abb2" fill-rule="nonzero" stroke="none" stroke-width="1" stroke-linecap="butt" stroke-linejoin="miter" stroke-miterlimit="10" stroke-dasharray="" stroke-dashoffset="0" font-family="none" font-weight="none" font-size="none" text-anchor="none" style="mix-blend-mode: normal"><g transform="translate(0,256) scale(0.26667,0.26667)"><path d="M477,-120c-99.33333,0 -183.66667,-35.16667 -253,-105.5c-69.33333,-70.33333 -104,-155.5 -104,-255.5h60c0,83.33333 28.66667,154.33333 86,213c57.33333,58.66667 127.66667,88 211,88c84.66667,0 156.33333,-29.66667 215,-89c58.66667,-59.33333 88,-131.33333 88,-216c0,-82.66667 -29.66667,-152.5 -89,-209.5c-59.33333,-57 -130.66667,-85.5 -214,-85.5c-45.33333,0 -87.83333,10.33333 -127.5,31c-39.66667,20.66667 -74.16667,48 -103.5,82h105v60h-209v-208h60v106c34.66667,-40.66667 75.83333,-72.66667 123.5,-96c47.66667,-23.33333 98.16667,-35 151.5,-35c50,0 97,9.33333 141,28c44,18.66667 82.5,44.16667 115.5,76.5c33,32.33333 59,70.16667 78,113.5c19,43.33333 28.5,90 28.5,140c0,50 -9.5,97 -28.5,141c-19,44 -45,82.33333 -78,115c-33,32.66667 -71.5,58.5 -115.5,77.5c-44,19 -91,28.5 -141,28.5zM605,-317l-154,-152v-214h60v189l137,134z"></path></g></g></svg>