<svg version="1.1" xmlns="http://www.w3.org/2000/svg" xmlns:xlink="http://www.w3.org/1999/xlink" width="24" height="24" viewBox="0,0,256,256"><g fill="#000033" fill-rule="nonzero" stroke="none" stroke-width="1" stroke-linecap="butt" stroke-linejoin="miter" stroke-miterlimit="10" stroke-dasharray="" stroke-dashoffset="0" font-family="none" font-weight="none" font-size="none" text-anchor="none" style="mix-blend-mode: normal"><g transform="translate(-0.0016,0.00156)"><g><g transform="translate(0,252.25333) scale(0.26667,0.26667)"><path d="M136,-304l-92,-90c-8,-8 -12,-17.33333 -12,-28c0,-10.66667 4,-20 12,-28c58.66667,-63.33333 126.33333,-110.83333 203,-142.5c76.66667,-31.66667 154.33333,-47.5 233,-47.5c78.66667,0 156.16667,15.83333 232.5,47.5c76.33333,31.66667 144.16667,79.16667 203.5,142.5c8,8 12,17.33333 12,28c0,10.66667 -4,20 -12,28l-92,90c-7.33333,7.33333 -15.83333,11.33333 -25.5,12c-9.66667,0.66667 -18.5,-2 -26.5,-8l-116,-88c-5.33333,-4 -9.33333,-8.66667 -12,-14c-2.66667,-5.33333 -4,-11.33333 -4,-18v-114c-25.33333,-8 -51.33333,-14.33333 -78,-19c-26.66667,-4.66667 -54,-7 -82,-7c-28,0 -55.33333,2.33333 -82,7c-26.66667,4.66667 -52.66667,11 -78,19v114c0,6.66667 -1.33333,12.66667 -4,18c-2.66667,5.33333 -6.66667,10 -12,14l-116,88c-8,6 -16.83333,8.66667 -26.5,8c-9.66667,-0.66667 -18.16667,-4.66667 -25.5,-12zM240,-502c-19.33333,10 -38,21.5 -56,34.5c-18,13 -36.66667,27.5 -56,43.5l40,40l72,-56zM720,-500v60l72,56l40,-38c-19.33333,-17.33333 -38,-32.33333 -56,-45c-18,-12.66667 -36.66667,-23.66667 -56,-33zM240,-502zM720,-500z"></path></g></g></g></g></svg>