<svg version="1.1" xmlns="http://www.w3.org/2000/svg" xmlns:xlink="http://www.w3.org/1999/xlink" width="24" height="24" viewBox="0,0,256,256"><g fill="#000033" fill-rule="nonzero" stroke="none" stroke-width="1" stroke-linecap="butt" stroke-linejoin="miter" stroke-miterlimit="10" stroke-dasharray="" stroke-dashoffset="0" font-family="none" font-weight="none" font-size="none" text-anchor="none" style="mix-blend-mode: normal"><g transform="translate(0,261.33333) scale(0.26667,0.26667)"><path d="M480,-400c-33.33333,0 -61.66667,-11.66667 -85,-35c-23.33333,-23.33333 -35,-51.66667 -35,-85v-240c0,-33.33333 11.66667,-61.66667 35,-85c23.33333,-23.33333 51.66667,-35 85,-35c33.33333,0 61.66667,11.66667 85,35c23.33333,23.33333 35,51.66667 35,85v240c0,33.33333 -11.66667,61.66667 -35,85c-23.33333,23.33333 -51.66667,35 -85,35zM480,-640zM440,-120v-123c-69.33333,-9.33333 -126.66667,-40.33333 -172,-93c-45.33333,-52.66667 -68,-114 -68,-184h80c0,55.33333 19.5,102.5 58.5,141.5c39,39 86.16667,58.5 141.5,58.5c55.33333,0 102.5,-19.5 141.5,-58.5c39,-39 58.5,-86.16667 58.5,-141.5h80c0,70 -22.66667,131.33333 -68,184c-45.33333,52.66667 -102.66667,83.66667 -172,93v123zM480,-480c11.33333,0 20.83333,-3.83333 28.5,-11.5c7.66667,-7.66667 11.5,-17.16667 11.5,-28.5v-240c0,-11.33333 -3.83333,-20.83333 -11.5,-28.5c-7.66667,-7.66667 -17.16667,-11.5 -28.5,-11.5c-11.33333,0 -20.83333,3.83333 -28.5,11.5c-7.66667,7.66667 -11.5,17.16667 -11.5,28.5v240c0,11.33333 3.83333,20.83333 11.5,28.5c7.66667,7.66667 17.16667,11.5 28.5,11.5z"></path></g></g></svg>