<svg version="1.1" xmlns="http://www.w3.org/2000/svg" xmlns:xlink="http://www.w3.org/1999/xlink" width="48" height="48" viewBox="0,0,256,256"><g fill="#1f2c44" fill-rule="nonzero" stroke="none" stroke-width="1" stroke-linecap="butt" stroke-linejoin="miter" stroke-miterlimit="10" stroke-dasharray="" stroke-dashoffset="0" font-family="none" font-weight="none" font-size="none" text-anchor="none" style="mix-blend-mode: normal"><g transform="translate(0,256) scale(0.26667,0.26667)"><path d="M480,-159c88.66667,-80.66667 154.16667,-153.83333 196.5,-219.5c42.33333,-65.66667 63.5,-123.5 63.5,-173.5c0,-78.52667 -25.09733,-142.825 -75.292,-192.895c-50.194,-50.07 -111.76333,-75.105 -184.708,-75.105c-72.94467,0 -134.514,25.035 -184.708,75.105c-50.19467,50.07 -75.292,114.36833 -75.292,192.895c0,50 21.66667,107.83333 65,173.5c43.33333,65.66667 108.33333,138.83333 195,219.5zM480,-80c-107.33333,-91.33333 -187.5,-176.16667 -240.5,-254.5c-53,-78.33333 -79.5,-150.83333 -79.5,-217.5c0,-100 32.16667,-179.66667 96.5,-239c64.33333,-59.33333 138.83333,-89 223.5,-89c84.66667,0 159.16667,29.66667 223.5,89c64.33333,59.33333 96.5,139 96.5,239c0,66.66667 -26.5,139.16667 -79.5,217.5c-53,78.33333 -133.16667,163.16667 -240.5,254.5zM370,-440h60v-120h100v120h60v-185l-110,-73l-110,73zM480,-552z"></path></g></g></svg>