<svg version="1.1" xmlns="http://www.w3.org/2000/svg" xmlns:xlink="http://www.w3.org/1999/xlink" width="800px" height="800px" viewBox="0,0,256,256"><g fill="#b49c73" fill-rule="nonzero" stroke="none" stroke-width="1" stroke-linecap="butt" stroke-linejoin="miter" stroke-miterlimit="10" stroke-dasharray="" stroke-dashoffset="0" font-family="none" font-weight="none" font-size="none" text-anchor="none" style="mix-blend-mode: normal"><g transform="scale(0.5,0.5)"><g><path d="M256,0c-141.391,0 -256,114.609 -256,256c0,141.391 114.609,256 256,256c141.391,0 256,-114.609 256,-256c0,-141.391 -114.609,-256 -256,-256zM256,472c-119.297,0 -216,-96.703 -216,-216c0,-119.297 96.703,-216 216,-216c119.297,0 216,96.703 216,216c0,119.297 -96.703,216 -216,216z"></path><g><path d="M350.281,169.609l-23.594,21.625c16.329,17.813 25.313,40.813 25.313,64.766c0,52.938 -43.062,96 -96,96c-52.938,0 -96,-43.062 -96,-96c0,-52.938 43.062,-96 96,-96v-32c-70.578,0 -128,57.422 -128,128c0,70.578 57.422,128 128,128c70.578,0 128,-57.422 128,-128c0,-31.984 -11.969,-62.656 -33.719,-86.391z"></path><path d="M272,262.391l35.188,-123.703l-67.188,110.921l8,22.391z"></path></g></g></g></g></svg>