<svg version="1.1" xmlns="http://www.w3.org/2000/svg" xmlns:xlink="http://www.w3.org/1999/xlink" width="800px" height="800px" viewBox="0,0,256,256"><g fill="#b49c73" fill-rule="nonzero" stroke="none" stroke-width="1" stroke-linecap="butt" stroke-linejoin="miter" stroke-miterlimit="10" stroke-dasharray="" stroke-dashoffset="0" font-family="none" font-weight="none" font-size="none" text-anchor="none" style="mix-blend-mode: normal"><g transform="translate(-5.33333,5.33333) scale(10.66667,10.66667)"><path d="M19,1c0,-0.55228 0.4477,-1 1,-1c0.5523,0 1,0.44772 1,1v0.58582l1.2709,-1.27093c0.3905,-0.39052 1.0237,-0.39052 1.4142,0c0.3906,0.39052 0.3906,1.02369 0,1.41422l-1.2709,1.27089h0.5858c0.5523,0 1,0.44772 1,1c0,0.55228 -0.4477,1 -1,1h-2.5858l-7.7125,7.7125c-0.3905,0.3905 -1.0237,0.3905 -1.4142,0c-0.3905,-0.3905 -0.3905,-1.0237 0,-1.4142l7.7125,-7.71248z"></path><path d="M17.3924,3.78908c0.4416,-0.44158 0.3753,-1.17833 -0.1742,-1.475c-1.5527,-0.83827 -3.3299,-1.31408 -5.2182,-1.31408c-6.07513,0 -11,4.92487 -11,11c0,6.0751 4.92487,11 11,11c6.0751,0 11,-4.9249 11,-11c0,-1.8846 -0.4739,-3.65847 -1.3091,-5.20898c-0.2963,-0.55011 -1.0335,-0.61678 -1.4754,-0.17496l-0.0299,0.02992c-0.3302,0.33017 -0.3824,0.84236 -0.1696,1.25799c0.6291,1.22863 0.984,2.62093 0.984,4.09603c0,4.9706 -4.0294,9 -9,9c-4.97056,0 -9,-4.0294 -9,-9c0,-4.97056 4.02944,-9 9,-9c1.4782,0 2.8732,0.35638 4.1037,0.98791c0.4158,0.21338 0.9285,0.16138 1.259,-0.16907z"></path><path d="M14.3899,6.79159c0.4726,-0.47257 0.3537,-1.26832 -0.2837,-1.46918c-0.6647,-0.20946 -1.3723,-0.32241 -2.1062,-0.32241c-3.86599,0 -7,3.13401 -7,7c0,3.866 3.13401,7 7,7c3.866,0 7,-3.134 7,-7c0,-0.7298 -0.1117,-1.4336 -0.3189,-2.0951c-0.2,-0.63831 -0.9965,-0.75793 -1.4694,-0.28495l-0.0923,0.09229c-0.2812,0.28113 -0.3599,0.70016 -0.2647,1.08616c0.0949,0.3849 0.1453,0.7874 0.1453,1.2016c0,2.7614 -2.2386,5 -5,5c-2.76142,0 -5,-2.2386 -5,-5c0,-2.76142 2.23858,-5 5,-5c0.4172,0 0.8225,0.0511 1.21,0.1474c0.3865,0.09607 0.8066,0.01756 1.0882,-0.26409z"></path><path d="M11.078,9.15136c0.4094,-0.13652 0.6154,0.33673 0.3102,0.64193l-0.8055,0.80561c-0.78016,0.7801 -0.78016,2.0449 0,2.825c0.7801,0.7801 2.0449,0.7801 2.825,0l0.7954,-0.7954c0.3058,-0.3058 0.7791,-0.0984 0.6398,0.3112c-0.4019,1.1812 -1.5294,2.0603 -2.8429,2.0603c-1.6569,0 -3,-1.3431 -3,-3c0,-1.3204 0.88827,-2.45198 2.078,-2.84864z"></path></g></g></svg>