<svg version="1.1" xmlns="http://www.w3.org/2000/svg" xmlns:xlink="http://www.w3.org/1999/xlink" width="48" height="48" viewBox="0,0,256,256"><g fill="#b49c70" fill-rule="nonzero" stroke="none" stroke-width="1" stroke-linecap="butt" stroke-linejoin="miter" stroke-miterlimit="10" stroke-dasharray="" stroke-dashoffset="0" font-family="none" font-weight="none" font-size="none" text-anchor="none" style="mix-blend-mode: normal"><g transform="translate(0,256) scale(0.26667,0.26667)"><path d="M480,-80c-56,0 -108.33333,-10.5 -157,-31.5c-48.66667,-21 -91,-49.5 -127,-85.5c-36,-36 -64.33333,-78.5 -85,-127.5c-20.66667,-49 -31,-101.5 -31,-157.5c0,-56 10.33333,-108.16667 31,-156.5c20.66667,-48.33333 49,-90.5 85,-126.5c36,-36 78.33333,-64.16667 127,-84.5c48.66667,-20.33333 101,-30.5 157,-30.5c56,0 108.33333,10.16667 157,30.5c48.66667,20.33333 91,48.5 127,84.5c36,36 64.33333,78.16667 85,126.5c20.66667,48.33333 31,100.5 31,156.5c0,56 -10.33333,108.5 -31,157.5c-20.66667,49 -49,91.5 -85,127.5c-36,36 -78.33333,64.5 -127,85.5c-48.66667,21 -101,31.5 -157,31.5zM480,-138c23.33333,-24 42.83333,-51.5 58.5,-82.5c15.66667,-31 28.5,-67.83333 38.5,-110.5h-193c9.33333,40 21.83333,76 37.5,108c15.66667,32 35.16667,60.33333 58.5,85zM395,-150c-16.66667,-25.33333 -31,-52.66667 -43,-82c-12,-29.33333 -22,-62.33333 -30,-99h-150c25.33333,47.33333 54.66667,84.5 88,111.5c33.33333,27 78.33333,50.16667 135,69.5zM566,-151c48,-15.33333 91.16667,-38.33333 129.5,-69c38.33333,-30.66667 69.16667,-67.66667 92.5,-111h-149c-8.66667,36 -18.83333,68.66667 -30.5,98c-11.66667,29.33333 -25.83333,56.66667 -42.5,82zM152,-391h159c-2,-18 -3.16667,-34.16667 -3.5,-48.5c-0.33333,-14.33333 -0.5,-28.5 -0.5,-42.5c0,-16.66667 0.33333,-31.5 1,-44.5c0.66667,-13 2,-27.5 4,-43.5h-160c-4.66667,16 -7.83333,30.33333 -9.5,43c-1.66667,12.66667 -2.5,27.66667 -2.5,45c0,17.33333 0.83333,32.83333 2.5,46.5c1.66667,13.66667 4.83333,28.5 9.5,44.5zM373,-391h215c2.66667,-20.66667 4.33333,-37.5 5,-50.5c0.66667,-13 1,-26.5 1,-40.5c0,-13.33333 -0.33333,-26.16667 -1,-38.5c-0.66667,-12.33333 -2.33333,-28.83333 -5,-49.5h-215c-2.66667,20.66667 -4.33333,37.16667 -5,49.5c-0.66667,12.33333 -1,25.16667 -1,38.5c0,14 0.33333,27.5 1,40.5c0.66667,13 2.33333,29.83333 5,50.5zM648,-391h160c4.66667,-16 7.83333,-30.83333 9.5,-44.5c1.66667,-13.66667 2.5,-29.16667 2.5,-46.5c0,-17.33333 -0.83333,-32.33333 -2.5,-45c-1.66667,-12.66667 -4.83333,-27 -9.5,-43h-159c2,23.33333 3.33333,41.16667 4,53.5c0.66667,12.33333 1,23.83333 1,34.5c0,14.66667 -0.5,28.5 -1.5,41.5c-1,13 -2.5,29.5 -4.5,49.5zM638,-630h150c-22,-46 -52.16667,-84.33333 -90.5,-115c-38.33333,-30.66667 -82.5,-52.33333 -132.5,-65c16.66667,24.66667 30.83333,51.33333 42.5,80c11.66667,28.66667 21.83333,62 30.5,100zM384,-630h194c-7.33333,-35.33333 -19.66667,-69.5 -37,-102.5c-17.33333,-33 -37.66667,-62.16667 -61,-87.5c-21.33333,18 -39.33333,41.66667 -54,71c-14.66667,29.33333 -28.66667,69 -42,119zM172,-630h151c7.33333,-36 16.66667,-68.16667 28,-96.5c11.33333,-28.33333 25.66667,-55.83333 43,-82.5c-50,12.66667 -93.66667,34 -131,64c-37.33333,30 -67.66667,68.33333 -91,115z"></path></g></g></svg>