<svg version="1.1" xmlns="http://www.w3.org/2000/svg" xmlns:xlink="http://www.w3.org/1999/xlink" width="48" height="48" viewBox="0,0,256,256"><g fill="#b49c70" fill-rule="nonzero" stroke="none" stroke-width="1" stroke-linecap="butt" stroke-linejoin="miter" stroke-miterlimit="10" stroke-dasharray="" stroke-dashoffset="0" font-family="none" font-weight="none" font-size="none" text-anchor="none" style="mix-blend-mode: normal"><g transform="translate(0,253.46667) scale(0.26667,0.26667)"><path d="M480,-481c-44,0 -80,-14 -108,-42c-28,-28 -42,-64 -42,-108c0,-44 14,-80 42,-108c28,-28 64,-42 108,-42c44,0 80,14 108,42c28,28 42,64 42,108c0,44 -14,80 -42,108c-28,28 -64,42 -108,42zM160,-160v-94c0,-25.33333 6.33333,-47 19,-65c12.66667,-18 29,-31.66667 49,-41c44.66667,-20 87.5,-35 128.5,-45c41,-10 82.16667,-15 123.5,-15c41.33333,0 82.33333,5.16667 123,15.5c40.66667,10.33333 83.307,25.23133 127.921,44.694c20.86733,9.41733 37.59733,23.07267 50.19,40.966c12.59267,17.89333 18.889,39.50667 18.889,64.84v94zM220,-220h520v-34c0,-10.66667 -3.16667,-20.83333 -9.5,-30.5c-6.33333,-9.66667 -14.16667,-16.83333 -23.5,-21.5c-42.66667,-20.66667 -81.66667,-34.83333 -117,-42.5c-35.33333,-7.66667 -72,-11.5 -110,-11.5c-38,0 -75,3.83333 -111,11.5c-36,7.66667 -75,21.83333 -117,42.5c-9.33333,4.66667 -17,11.83333 -23,21.5c-6,9.66667 -9,19.83333 -9,30.5zM480,-541c26,0 47.5,-8.5 64.5,-25.5c17,-17 25.5,-38.5 25.5,-64.5c0,-26 -8.5,-47.5 -25.5,-64.5c-17,-17 -38.5,-25.5 -64.5,-25.5c-26,0 -47.5,8.5 -64.5,25.5c-17,17 -25.5,38.5 -25.5,64.5c0,26 8.5,47.5 25.5,64.5c17,17 38.5,25.5 64.5,25.5zM480,-631zM480,-220z"></path></g></g></svg>